<svg width="160" height="49" viewBox="0 0 697 215" fill="none" xmlns="http://www.w3.org/2000/svg">
<path d="M140.194 92V8.84H159.874V76.46H195.934L193.894 92H140.194ZM221.147 28.28V71.9C221.147 74.98 221.707 77.1 222.827 78.26C223.987 79.42 225.587 80 227.627 80C229.587 80 231.547 79.38 233.507 78.14C235.467 76.9 237.107 75.22 238.427 73.1V28.28H257.387V92H240.827L239.987 84.56C237.827 87.68 234.987 90.04 231.467 91.64C227.947 93.24 224.267 94.04 220.427 94.04C214.267 94.04 209.687 92.26 206.687 88.7C203.687 85.1 202.187 80.28 202.187 74.24V28.28H221.147ZM327.421 28.28L306.481 56.48L329.161 92H307.561L286.621 57.08L307.561 28.28H327.421ZM285.901 0.979995V92H266.941V2.95999L285.901 0.979995ZM385.334 73.64C385.334 76.04 385.654 77.78 386.294 78.86C386.974 79.94 388.054 80.76 389.534 81.32L385.634 93.8C381.874 93.44 378.694 92.62 376.094 91.34C373.534 90.02 371.514 88.04 370.034 85.4C367.594 88.32 364.474 90.5 360.674 91.94C356.874 93.34 352.994 94.04 349.034 94.04C342.474 94.04 337.234 92.18 333.314 88.46C329.434 84.7 327.494 79.88 327.494 74C327.494 67.08 330.194 61.74 335.594 57.98C341.034 54.22 348.674 52.34 358.514 52.34H367.094V49.94C367.094 46.62 366.014 44.16 363.854 42.56C361.734 40.96 358.614 40.16 354.494 40.16C352.454 40.16 349.834 40.46 346.634 41.06C343.434 41.62 340.234 42.44 337.034 43.52L332.654 30.92C336.774 29.36 341.054 28.18 345.494 27.38C349.974 26.58 353.974 26.18 357.494 26.18C366.974 26.18 373.974 28.12 378.494 32C383.054 35.84 385.334 41.4 385.334 48.68V73.64ZM355.574 80.48C357.614 80.48 359.754 79.88 361.994 78.68C364.234 77.44 365.934 75.7 367.094 73.46V63.14H362.414C357.134 63.14 353.254 63.96 350.774 65.6C348.294 67.2 347.054 69.56 347.054 72.68C347.054 75.12 347.794 77.04 349.274 78.44C350.794 79.8 352.894 80.48 355.574 80.48ZM422.007 80.48C425.167 80.48 427.707 79.98 429.627 78.98C431.587 77.98 432.567 76.48 432.567 74.48C432.567 73.12 432.187 71.98 431.427 71.06C430.667 70.14 429.207 69.26 427.047 68.42C424.887 67.58 421.687 66.58 417.447 65.42C413.567 64.38 410.127 63.06 407.127 61.46C404.167 59.86 401.847 57.8 400.167 55.28C398.527 52.76 397.707 49.62 397.707 45.86C397.707 42.06 398.767 38.68 400.887 35.72C403.007 32.76 406.127 30.44 410.247 28.76C414.367 27.04 419.407 26.18 425.367 26.18C431.047 26.18 435.987 26.92 440.187 28.4C444.427 29.84 448.087 31.68 451.167 33.92L443.607 45.08C440.967 43.44 438.127 42.14 435.087 41.18C432.047 40.18 428.987 39.68 425.907 39.68C422.827 39.68 420.527 40.1 419.007 40.94C417.527 41.74 416.787 42.96 416.787 44.6C416.787 45.68 417.167 46.62 417.927 47.42C418.727 48.18 420.207 48.98 422.367 49.82C424.527 50.62 427.687 51.62 431.847 52.82C435.967 53.98 439.547 55.32 442.587 56.84C445.667 58.36 448.047 60.4 449.727 62.96C451.407 65.48 452.247 68.82 452.247 72.98C452.247 77.62 450.867 81.52 448.107 84.68C445.347 87.8 441.687 90.14 437.127 91.7C432.567 93.26 427.567 94.04 422.127 94.04C415.967 94.04 410.527 93.16 405.807 91.4C401.087 89.64 397.067 87.32 393.747 84.44L403.287 73.76C405.767 75.68 408.567 77.28 411.687 78.56C414.847 79.84 418.287 80.48 422.007 80.48ZM67.6881 187.7C67.6881 192.86 66.3281 197.42 63.6081 201.38C60.9281 205.34 57.0681 208.44 52.0281 210.68C46.9881 212.92 40.9281 214.04 33.8481 214.04C26.0081 214.04 19.4281 212.9 14.1081 210.62C8.82814 208.3 4.44814 205.44 0.968137 202.04L10.9281 191C14.0081 193.68 17.4081 195.76 21.1281 197.24C24.8481 198.68 28.9281 199.4 33.3681 199.4C36.1281 199.4 38.5481 199 40.6281 198.2C42.7081 197.4 44.3281 196.24 45.4881 194.72C46.6481 193.2 47.2281 191.36 47.2281 189.2C47.2281 187.16 46.7681 185.44 45.8481 184.04C44.9281 182.64 43.3681 181.38 41.1681 180.26C39.0081 179.14 35.9881 178 32.1081 176.84C25.6281 174.84 20.4081 172.64 16.4481 170.24C12.5281 167.84 9.66814 165.06 7.86814 161.9C6.10814 158.74 5.22814 155.06 5.22814 150.86C5.22814 145.78 6.62814 141.44 9.42814 137.84C12.2681 134.24 16.0681 131.5 20.8281 129.62C25.5881 127.7 30.8281 126.74 36.5481 126.74C42.9881 126.74 48.6681 127.68 53.5881 129.56C58.5081 131.4 62.7681 134.04 66.3681 137.48L57.0681 148.16C54.2681 145.8 51.2481 144.06 48.0081 142.94C44.7681 141.78 41.4681 141.2 38.1081 141.2C35.6281 141.2 33.4481 141.52 31.5681 142.16C29.6881 142.76 28.2281 143.66 27.1881 144.86C26.1481 146.06 25.6281 147.56 25.6281 149.36C25.6281 151.12 26.1281 152.6 27.1281 153.8C28.1281 155 29.8681 156.14 32.3481 157.22C34.8281 158.26 38.2681 159.48 42.6681 160.88C47.9081 162.48 52.3881 164.4 56.1081 166.64C59.8681 168.84 62.7281 171.62 64.6881 174.98C66.6881 178.34 67.6881 182.58 67.6881 187.7ZM106.461 199.1C109.061 199.1 111.501 198.6 113.781 197.6C116.101 196.56 118.401 195.24 120.681 193.64L129.141 205.64C126.341 208.04 122.921 210.04 118.881 211.64C114.881 213.24 110.401 214.04 105.441 214.04C98.6013 214.04 92.7213 212.64 87.8013 209.84C82.8813 207 79.1013 203.08 76.4613 198.08C73.8213 193.04 72.5013 187.2 72.5013 180.56C72.5013 173.92 73.8413 168.02 76.5213 162.86C79.2413 157.66 83.0813 153.58 88.0413 150.62C93.0413 147.66 98.9613 146.18 105.801 146.18C110.641 146.18 114.941 146.86 118.701 148.22C122.501 149.54 125.981 151.52 129.141 154.16L120.921 165.56C118.761 164.04 116.481 162.86 114.081 162.02C111.681 161.18 109.181 160.76 106.581 160.76C102.301 160.76 98.8413 162.28 96.2013 165.32C93.6013 168.32 92.3013 173.4 92.3013 180.56C92.3013 185.24 92.9213 188.94 94.1613 191.66C95.4013 194.34 97.0813 196.26 99.2013 197.42C101.361 198.54 103.781 199.1 106.461 199.1ZM156.394 121.1V154.58C159.074 151.74 161.974 149.64 165.094 148.28C168.254 146.88 171.594 146.18 175.114 146.18C180.794 146.18 185.134 147.84 188.134 151.16C191.134 154.48 192.634 159.16 192.634 165.2V212H173.674V170.48C173.674 166.64 173.234 163.96 172.354 162.44C171.514 160.92 169.914 160.16 167.554 160.16C166.234 160.16 164.934 160.48 163.654 161.12C162.414 161.72 161.194 162.6 159.994 163.76C158.794 164.92 157.594 166.3 156.394 167.9V212H137.434V122.96L156.394 121.1ZM202.788 212V199.28H211.188V160.88H202.788V148.28H225.648L229.128 162.62C231.408 157.14 234.308 153.06 237.828 150.38C241.388 147.7 245.728 146.36 250.848 146.36C253.008 146.36 254.928 146.54 256.608 146.9C258.288 147.22 259.868 147.68 261.348 148.28L255.588 163.94C254.428 163.62 253.268 163.38 252.108 163.22C250.948 163.06 249.668 162.98 248.268 162.98C244.108 162.98 240.448 164.68 237.288 168.08C234.168 171.48 231.788 175.8 230.148 181.04V199.28H242.748V212H202.788ZM245.928 174.92V156.32L248.748 148.28H261.348L257.808 174.92H245.928ZM294.541 146.18C301.101 146.18 306.681 147.58 311.281 150.38C315.881 153.18 319.401 157.12 321.841 162.2C324.281 167.24 325.501 173.16 325.501 179.96C325.501 187.04 324.261 193.14 321.781 198.26C319.341 203.34 315.821 207.24 311.221 209.96C306.621 212.68 301.061 214.04 294.541 214.04C288.061 214.04 282.501 212.7 277.861 210.02C273.261 207.34 269.721 203.46 267.241 198.38C264.801 193.3 263.581 187.2 263.581 180.08C263.581 173.32 264.801 167.4 267.241 162.32C269.721 157.24 273.261 153.28 277.861 150.44C282.501 147.6 288.061 146.18 294.541 146.18ZM294.541 160.16C290.661 160.16 287.781 161.76 285.901 164.96C284.061 168.12 283.141 173.16 283.141 180.08C283.141 187.12 284.061 192.22 285.901 195.38C287.781 198.54 290.661 200.12 294.541 200.12C298.421 200.12 301.281 198.54 303.121 195.38C305.001 192.22 305.941 187.08 305.941 179.96C305.941 173.08 305.001 168.06 303.121 164.9C301.281 161.74 298.421 160.16 294.541 160.16ZM280.681 135.5C277.921 135.5 275.581 134.58 273.661 132.74C271.741 130.9 270.781 128.62 270.781 125.9C270.781 123.22 271.741 120.96 273.661 119.12C275.581 117.28 277.921 116.36 280.681 116.36C283.481 116.36 285.821 117.28 287.701 119.12C289.581 120.96 290.521 123.22 290.521 125.9C290.521 128.62 289.581 130.9 287.701 132.74C285.821 134.58 283.481 135.5 280.681 135.5ZM308.401 135.5C305.721 135.5 303.401 134.58 301.441 132.74C299.521 130.9 298.561 128.62 298.561 125.9C298.561 123.22 299.521 120.96 301.441 119.12C303.401 117.28 305.721 116.36 308.401 116.36C311.201 116.36 313.541 117.28 315.421 119.12C317.341 120.96 318.301 123.22 318.301 125.9C318.301 128.62 317.341 130.9 315.421 132.74C313.541 134.58 311.201 135.5 308.401 135.5ZM348.134 185.66C348.574 189.14 349.474 191.96 350.834 194.12C352.234 196.24 354.014 197.8 356.174 198.8C358.334 199.76 360.754 200.24 363.434 200.24C366.354 200.24 369.174 199.76 371.894 198.8C374.614 197.84 377.234 196.56 379.754 194.96L387.374 205.28C384.374 207.84 380.734 209.94 376.454 211.58C372.214 213.22 367.374 214.04 361.934 214.04C354.654 214.04 348.554 212.6 343.634 209.72C338.714 206.8 335.014 202.8 332.534 197.72C330.054 192.64 328.814 186.8 328.814 180.2C328.814 173.92 330.014 168.22 332.414 163.1C334.814 157.94 338.314 153.84 342.914 150.8C347.554 147.72 353.214 146.18 359.894 146.18C365.974 146.18 371.234 147.48 375.674 150.08C380.154 152.68 383.614 156.42 386.054 161.3C388.534 166.18 389.774 172.04 389.774 178.88C389.774 179.96 389.734 181.12 389.654 182.36C389.614 183.6 389.534 184.7 389.414 185.66H348.134ZM359.894 158.9C356.494 158.9 353.754 160.12 351.674 162.56C349.594 165 348.334 168.9 347.894 174.26H371.294C371.254 169.62 370.354 165.9 368.594 163.1C366.834 160.3 363.934 158.9 359.894 158.9ZM397.047 212V199.28H405.447V160.88H397.047V148.28H419.907L423.387 162.62C425.667 157.14 428.567 153.06 432.087 150.38C435.647 147.7 439.987 146.36 445.107 146.36C447.267 146.36 449.187 146.54 450.867 146.9C452.547 147.22 454.127 147.68 455.607 148.28L449.847 163.94C448.687 163.62 447.527 163.38 446.367 163.22C445.207 163.06 443.927 162.98 442.527 162.98C438.367 162.98 434.707 164.68 431.547 168.08C428.427 171.48 426.047 175.8 424.407 181.04V199.28H437.007V212H397.047ZM440.187 174.92V156.32L443.007 148.28H455.607L452.067 174.92H440.187Z" fill="white"/>
<path d="M511.541 126.44V118.12L556.261 92.224V100.856L519.341 121.76V122.592L556.261 143.496V152.336L511.541 126.44ZM568.18 168.352L604.372 74.96H611.86L575.668 168.352H568.18ZM623.78 143.704L660.7 122.8V121.968L623.78 101.064V92.224L668.5 118.12V126.44L623.78 152.336V143.704Z" fill="#3DCFB6"/>
<rect x="483" y="26" width="214" height="27" fill="#3DCFB6"/>
<rect x="685" y="200" width="174" height="12" transform="rotate(-90 685 200)" fill="#3DCFB6"/>
<rect x="483" y="188" width="214" height="12" fill="#3DCFB6"/>
<rect x="483" y="200" width="174" height="12" transform="rotate(-90 483 200)" fill="#3DCFB6"/>
</svg>
