<svg width="19" height="20" viewBox="0 0 19 20" fill="none" xmlns="http://www.w3.org/2000/svg">
<path d="M16.7715 10.6667H1.33317C1.14339 10.6667 0.984837 10.603 0.857504 10.4757C0.73017 10.3483 0.666504 10.1898 0.666504 9.99999C0.666504 9.81022 0.73017 9.65166 0.857504 9.52433C0.984837 9.39699 1.14339 9.33333 1.33317 9.33333H16.7715L9.5205 2.08199C9.3905 1.95222 9.3225 1.79922 9.3165 1.62299C9.3105 1.44699 9.38106 1.28544 9.52817 1.13833C9.67506 0.996549 9.83228 0.924327 9.99984 0.92166C10.1674 0.919216 10.3246 0.991438 10.4715 1.13833L18.5792 9.24599C18.6956 9.36244 18.7773 9.48133 18.8242 9.60266C18.8713 9.72399 18.8948 9.85644 18.8948 9.99999C18.8948 10.1435 18.8713 10.276 18.8242 10.3973C18.7773 10.5187 18.6956 10.6375 18.5792 10.754L10.4715 18.8617C10.3468 18.9863 10.1952 19.053 10.0165 19.0617C9.83784 19.0701 9.67506 19.0034 9.52817 18.8617C9.38106 18.7146 9.3075 18.556 9.3075 18.386C9.3075 18.2158 9.38106 18.0572 9.52817 17.9103L16.7715 10.6667Z" fill="#3DCFB6"/>
</svg>
