<svg width="22" height="24" viewBox="0 0 22 24" fill="none" xmlns="http://www.w3.org/2000/svg">
<path d="M0.580707 0.00422903C0.580707 0.0972677 0.576545 0.160703 0.580707 0.224138C0.738875 1.98341 0.897042 3.74269 1.05105 5.5062C1.26749 8.00132 1.47976 10.4964 1.6962 12.9873C1.94178 15.787 2.19152 18.5824 2.42877 21.382C2.44542 21.585 2.51618 21.6738 2.70348 21.7245C5.36736 22.4688 8.0229 23.2174 10.6868 23.9574C10.8658 24.0082 11.0822 24.0167 11.2612 23.9659C13.9334 23.2216 16.6014 22.4646 19.2736 21.7161C19.4776 21.6569 19.5483 21.5638 19.565 21.3524C19.6482 20.2951 19.7481 19.2336 19.8397 18.1764C19.9937 16.4255 20.1435 14.6747 20.2975 12.9239C20.4765 10.8686 20.6597 8.81752 20.8386 6.76222C20.9718 5.23131 21.1133 3.70463 21.2465 2.17372C21.309 1.45479 21.3631 0.735851 21.4214 0H0.580707V0.00422903ZM17.4006 6.11095C17.2632 7.65877 17.1259 9.21082 16.9885 10.7586C16.8303 12.5391 16.6722 14.3195 16.514 16.0957C16.4682 16.6074 16.4016 17.1191 16.3891 17.635C16.3808 17.9099 16.2643 17.9818 16.0395 18.0453C14.4328 18.4851 12.8304 18.9376 11.2279 19.3859C11.1571 19.407 11.0905 19.4324 11.0198 19.4535C10.9948 19.4408 10.9698 19.4324 10.9407 19.4197C9.22581 18.946 7.51094 18.4682 5.79607 17.9861C5.72531 17.9649 5.63374 17.8507 5.62542 17.7704C5.50471 16.4509 5.39649 15.1315 5.27995 13.7866H7.89804C7.94382 14.3153 7.99377 14.8523 8.03539 15.3937C8.07285 15.8927 8.06869 15.8927 8.53071 16.0196C9.359 16.2437 10.1915 16.4636 11.0198 16.6835L11.0114 16.6624C11.9188 16.4171 12.8262 16.176 13.7336 15.9138C13.8168 15.8885 13.9126 15.7531 13.925 15.6601C13.9792 15.2541 14.0083 14.8439 14.0416 14.4379C14.0957 13.7824 14.1498 13.1269 14.2081 12.4418H11.0114L11.0198 12.4249C10.999 12.4249 10.974 12.4249 10.9532 12.4249H5.15924C5.08016 11.5495 5.00523 10.6825 4.92615 9.7902H10.9573C10.9781 9.7902 11.0031 9.7902 11.0239 9.7902L11.0156 9.77328H14.4412C14.5203 8.86404 14.5993 7.97595 14.6784 7.07094H11.0114L11.0198 7.05402C10.999 7.05402 10.974 7.05402 10.9532 7.05402C8.90115 7.05825 6.84913 7.05825 4.79712 7.06248C4.76798 7.06248 4.73885 7.04979 4.68474 7.03287C4.60982 6.17015 4.53073 5.30743 4.45581 4.41933H10.9532C10.974 4.41933 10.999 4.41933 11.0198 4.41933L11.0114 4.40242H17.5379C17.4921 4.99448 17.4464 5.55271 17.4006 6.11095Z" fill="#3DCFB6"/>
</svg>
